<?xml version="1.0" standalone="no"?><!DOCTYPE svg PUBLIC "-//W3C//DTD SVG 1.1//EN" "http://www.w3.org/Graphics/SVG/1.1/DTD/svg11.dtd"><svg t="1501484369700" class="icon" style="" viewBox="0 0 1024 1024" version="1.1" xmlns="http://www.w3.org/2000/svg" p-id="3783" xmlns:xlink="http://www.w3.org/1999/xlink" width="22" height="22"><defs><style type="text/css"></style></defs><path d="M511.999488 959.290145c-246.616017 0-447.290656-200.623474-447.290656-447.290656 0-246.616017 200.674639-447.290656 447.290656-447.290656s447.290656 200.674639 447.290656 447.290656C959.290145 758.667694 758.615505 959.290145 511.999488 959.290145zM511.999488 125.760364c-212.955349 0-386.291313 173.283775-386.291313 386.239124 0 213.007538 173.335964 386.342478 386.291313 386.342478 213.007538 0 386.240147-173.33494 386.240147-386.342478C898.240659 299.044139 725.00805 125.760364 511.999488 125.760364zM533.172738 530.85904l-160.282657 175.647615c0 0-20.195991 19.167568-39.055543 2.003636-18.808387-17.214074-2.004659-39.46589-2.004659-39.46589l152.676414-167.219656L484.506293 181.05477c0 0 2.004659-28.161415 27.493195-28.059084 25.488536 0.103354 28.059084 28.059084 28.059084 28.059084l0 326.884235C541.240492 520.222785 533.172738 530.85904 533.172738 530.85904z" p-id="3784" fill="#fefefe"></path></svg>